Coordinates
version=1
nRows=29
nColumns=24
inDegrees=yes

Units are S.I. units (second, meters, Newtons, ...)
Angles are in degrees.

endheader
time	pelvis_tilt	pelvis_list	pelvis_rotation	pelvis_tx	pelvis_ty	pelvis_tz	hip_flexion_r	hip_adduction_r	hip_rotation_r	knee_angle_r	ankle_angle_r	subtalar_angle_r	mtp_angle_r	hip_flexion_l	hip_adduction_l	hip_rotation_l	knee_angle_l	ankle_angle_l	subtalar_angle_l	mtp_angle_l	lumbar_extension	lumbar_bending	lumbar_rotation
      0.88366667	      7.11519078	     -5.37106931	      4.26653681	     -0.31609352	      1.00531923	      0.34797818	      3.57595288	     12.30365748	      1.24934926	    -19.41923130	      5.52070105	    -22.73728157	    -11.12354945	      8.27109693	     -6.42136680	      2.12999411	    -69.59725917	     -3.80777835	    -10.73464470	      1.59049689	     -6.25640498	      9.68690413	      1.52960263
      0.88783333	      7.22094173	     -5.25313195	      4.14482424	     -0.31109981	      1.00633102	      0.34832945	      2.87411276	     12.19313060	      1.33670222	    -18.96213204	      5.59412972	    -22.50316282	    -11.23234741	      8.79629735	     -6.25946299	      2.09462632	    -69.45984596	     -3.20608980	    -10.91405497	      1.48497091	     -6.42767607	      9.54554193	      1.70853041
      0.89200000	      7.27348976	     -5.14904490	      4.01486100	     -0.30614796	      1.00721319	      0.34868661	      2.24366238	     12.09023967	      1.42797470	    -18.52225306	      5.65915442	    -22.24825610	    -11.33461726	      9.38005869	     -6.10844056	      2.06202300	    -69.29601630	     -2.61487332	    -11.06293395	      1.37073770	     -6.55459063	      9.42613183	      1.89929554
      0.89616667	      7.31530358	     -5.03656779	      3.86571619	     -0.30121048	      1.00806714	      0.34905720	      1.63469640	     11.97361688	      1.51935963	    -18.10168543	      5.71371581	    -22.05372027	    -11.38016815	      9.95592568	     -5.94957101	      2.00641280	    -69.07553201	     -2.04394564	    -11.25434670	      1.31347818	     -6.67049576	      9.28830493	      2.01204319
      0.90033333	      7.39563412	     -4.93092219	      3.72565570	     -0.29627206	      1.00893337	      0.34941404	      0.97138198	     11.86272986	      1.61052134	    -17.64985532	      5.76285129	    -21.78653665	    -11.42686385	     10.47761055	     -5.80488743	      1.95570573	    -68.80864798	     -1.50422377	    -11.38622977	      1.24277113	     -6.82843407	      9.16037246	      2.19229085
      0.90450000	      7.45721165	     -4.82633818	      3.58189042	     -0.29134510	      1.00973352	      0.34976048	      0.33638955	     11.74613255	      1.69030665	    -17.20978272	      5.82638768	    -21.49781731	    -11.47405505	     11.00808286	     -5.65872098	      1.90538479	    -68.49667858	     -1.01157725	    -11.49220147	      1.15668682	     -6.96617979	      9.03258548	      2.39552568
      0.90866667	      7.54167790	     -4.71267707	      3.43515614	     -0.28643549	      1.01054116	      0.35008398	     -0.32172118	     11.61248806	      1.74857322	    -16.77013629	      5.90617192	    -21.15885581	    -11.53474990	     11.49419430	     -5.49911958	      1.85983727	    -68.12748979	     -0.56801933	    -11.56713687	      1.02278363	     -7.13050467	      8.91796427	      2.64348875
      0.91283333	      7.60532263	     -4.60259342	      3.27603273	     -0.28153290	      1.01128772	      0.35042829	     -0.94769330	     11.48009231	      1.81861745	    -16.34685039	      5.97012577	    -20.84305318	    -11.59128186	     11.98920031	     -5.34806478	      1.79745844	    -67.71714440	     -0.13229731	    -11.64984617	      0.87451667	     -7.27352598	      8.78693844	      2.84824723
      0.91700000	      7.62870990	     -4.50951212	      3.09704546	     -0.27664862	      1.01191817	      0.35080670	     -1.51937248	     11.36384172	      1.91092373	    -15.93932551	      6.01176044	    -20.58884070	    -11.61777146	     12.52050249	     -5.22391032	      1.71388924	    -67.27964221	      0.30019613	    -11.72377254	      0.78805648	     -7.36427740	      8.65912288	      2.99105781
      0.92116667	      7.69581624	     -4.39821483	      2.93471780	     -0.27177237	      1.01258636	      0.35114136	     -2.14170716	     11.22237592	      1.96878042	    -15.52220348	      6.08440229	    -20.25251060	    -11.64825442	     12.98332367	     -5.07356748	      1.65461686	    -66.77898407	      0.66788810	    -11.73161795	      0.65960415	     -7.51340661	      8.53989763	      3.23243877
      0.92533333	      7.71677449	     -4.29315475	      2.74085543	     -0.26690527	      1.01316182	      0.35150437	     -2.70039869	     11.08251558	      2.05509420	    -15.13117155	      6.13226988	    -19.96625053	    -11.66521708	     13.47917636	     -4.93540552	      1.56300335	    -66.24069906	      1.03909700	    -11.76002412	      0.56094605	     -7.60529971	      8.40734133	      3.40518598
      0.92950000	      7.76911008	     -4.18841714	      2.57462402	     -0.26207203	      1.01371098	      0.35180691	     -3.27620665	     10.93486801	      2.06770763	    -14.76590926	      6.25428772	    -19.53632666	    -11.70997668	     13.93449352	     -4.78450470	      1.51262940	    -65.66782507	      1.38361853	    -11.78038401	      0.23277137	     -7.75591683	      8.28429510	      3.71733478
      0.93366667	      7.80846651	     -4.10219018	      2.39375544	     -0.25722235	      1.01422471	      0.35217485	     -3.86587807	     10.81776959	      2.18232190	    -14.33876886	      6.27399522	    -19.28542385	    -11.71840715	     14.38682040	     -4.67539859	      1.43766092	    -65.05093360	      1.69613648	    -11.69095031	      0.11587594	     -7.87291484	      8.17473145	      3.85406258
      0.93783333	      7.81227472	     -4.01575365	      2.18798216	     -0.25238053	      1.01464607	      0.35255528	     -4.39658230	     10.69326654	      2.30522032	    -13.95682975	      6.30881348	    -19.04528240	    -11.71862552	     14.85806379	     -4.56702869	      1.34174026	    -64.39450215	      2.01470935	    -11.63827849	      0.04442230	     -7.94920765	      8.06579356	      4.00089655
      0.94200000	      7.82899256	     -3.94025920	      2.00065200	     -0.24755320	      1.01502729	      0.35291254	     -4.93890596	     10.57790952	      2.39123947	    -13.56968574	      6.36503393	    -18.76540011	    -11.71513375	     15.30759261	     -4.47079074	      1.26666018	    -63.70550309	      2.31245105	    -11.53441034	     -0.04181010	     -8.04234739	      7.96867617	      4.21867068
      0.94616667	      7.86543276	     -3.87050873	      1.83563360	     -0.24273076	      1.01538721	      0.35323130	     -5.50283010	     10.46748738	      2.45200329	    -13.17745675	      6.44671083	    -18.46197798	    -11.70729722	     15.72427290	     -4.37241783	      1.22304555	    -62.97924213	      2.58131343	    -11.42594435	     -0.16919819	     -8.16447156	      7.87875792	      4.47289323
      0.95033333	      7.87695037	     -3.79144099	      1.64178338	     -0.23790935	      1.01568568	      0.35358646	     -6.03108855	     10.34237067	      2.54122482	    -12.80493059	      6.50987783	    -18.17376939	    -11.69488833	     16.14227311	     -4.27374627	      1.14570669	    -62.20522950	      2.84552006	    -11.31668152	     -0.29892921	     -8.25336758	      7.77319536	      4.67699974
      0.95450000	      7.86458890	     -3.72858399	      1.43386701	     -0.23309712	      1.01590435	      0.35396759	     -6.52766614	     10.23424835	      2.66151810	    -12.44201003	      6.55696484	    -17.94571230	    -11.68363538	     16.57201021	     -4.20197293	      1.05278598	    -61.39931180	      3.09720276	    -11.19813168	     -0.37101372	     -8.30846002	      7.68171279	      4.81769818
      0.95866667	      7.86465509	     -3.66438007	      1.24284248	     -0.22827608	      1.01610050	      0.35431719	     -7.04239158	     10.12312280	      2.76498971	    -12.06745026	      6.61907532	    -17.69912967	    -11.66990808	     16.97110121	     -4.12473074	      0.97844306	    -60.55269217	      3.33816047	    -11.06066506	     -0.44370105	     -8.38311619	      7.58926577	      5.00686300
      0.96283333	      7.86141022	     -3.61233542	      1.05429266	     -0.22346385	      1.01623898	      0.35466722	     -7.54743623	     10.02314283	      2.86104273	    -11.70131095	      6.68576297	    -17.45556302	    -11.65451163	     17.36139713	     -4.06429217	      0.90710531	    -59.67568044	      3.56428436	    -10.92334618	     -0.51681835	     -8.45458787	      7.51500295	      5.19904950
      0.96700000	      7.88248236	     -3.56960373	      0.89324981	     -0.21865684	      1.01636134	      0.35497059	     -8.08285132	      9.93314453	      2.92516316	    -11.32099864	      6.77825964	    -17.19347960	    -11.63004573	     17.71462367	     -4.00612939	      0.86471465	    -58.76665002	      3.77298451	    -10.79010794	     -0.63374760	     -8.55720760	      7.44854209	      5.44232702
      0.97116667	      7.83906440	     -3.52597067	      0.69247663	     -0.21385145	      1.01635895	      0.35533332	     -8.53201134	      9.83886181	      3.05098139	    -10.97967715	      6.84265558	    -16.99547647	    -11.61529403	     18.11440346	     -3.96202191	      0.77967534	    -57.81985253	      3.96811855	    -10.67015246	     -0.68664534	     -8.57765307	      7.37767573	      5.55041185
      0.97533333	      7.84173192	     -3.48589590	      0.51015834	     -0.20902733	      1.01638209	      0.35567029	     -9.04230877	      9.74660886	      3.14759153	    -10.61226821	      6.91702444	    -16.76836817	    -11.59680544	     18.44481756	     -3.92481677	      0.69820217	    -56.83334913	      4.15743394	    -10.53783930	     -0.75281911	     -8.65104977	      7.30795107	      5.73302502
      0.97950000	      7.82841898	     -3.46326633	      0.33636578	     -0.20422020	      1.01632738	      0.35598124	     -9.52756022	      9.67199207	      3.24377301	    -10.25738390	      6.99858923	    -16.55410263	    -11.57793796	     18.78274495	     -3.90365868	      0.62941924	    -55.82293437	      4.33524799	    -10.41853787	     -0.81580646	     -8.70861474	      7.26301920	      5.89972867
      0.98366667	      7.83133292	     -3.43755671	      0.17847960	     -0.19938289	      1.01624346	      0.35628625	    -10.03373307	      9.59379920	      3.29954200	     -9.89605466	      7.09868014	    -16.32621272	    -11.55200762	     19.08664294	     -3.88385778	      0.55579556	    -54.78097248	      4.49264380	    -10.31637190	     -0.90397959	     -8.77720394	      7.20600043	      6.10294634
      0.98783333	      7.77680713	     -3.41662031	     -0.00107139	     -0.19457138	      1.01604892	      0.35659317	    -10.45684785	      9.51606319	      3.39633526	     -9.57724596	      7.18643981	    -16.12258702	    -11.53015897	     19.43192934	     -3.86910634	      0.47544251	    -53.70126491	      4.63898328	    -10.23067385	     -0.96757870	     -8.78665024	      7.16127895	      6.22719725
      0.99200000	      7.75351513	     -3.40431314	     -0.16536636	     -0.18974912	      1.01585462	      0.35688330	    -10.92273804	      9.44846212	      3.48673272	     -9.23918032	      7.28027235	    -15.91904885	    -11.50905974	     19.72769955	     -3.86689171	      0.39265508	    -52.59274529	      4.77741155	    -10.15193962	     -1.02501585	     -8.83109487	      7.12800465	      6.35868835
      0.99616667	      7.73515712	     -3.40152699	     -0.32135270	     -0.18491608	      1.01560657	      0.35716226	    -11.39077553	      9.38896980	      3.55605053	     -8.90663562	      7.38238736	    -15.71089142	    -11.48551950	     20.00444850	     -3.88116980	      0.30017919	    -51.46016806	      4.90512649	    -10.08378794	     -1.08587790	     -8.87626570	      7.10125777	      6.50242862
      1.00033333	      7.71432071	     -3.39739267	     -0.47573280	     -0.18007895	      1.01532568	      0.35743121	    -11.85291497	      9.32671706	      3.62489156	     -8.58078908	      7.48406988	    -15.50130822	    -11.46043502	     20.26419254	     -3.89521808	      0.19788279	    -50.29386072	      5.01553486	    -10.03366789	     -1.14703342	     -8.92111637	      7.07135798	      6.63722118
